<?xml version="1.0" encoding="UTF-8"?>
<svg width="60px" height="65px" viewBox="0 0 60 65" version="1.1" xmlns="http://www.w3.org/2000/svg" xmlns:xlink="http://www.w3.org/1999/xlink">
    <!-- Generator: Sketch 47.1 (45422) - http://www.bohemiancoding.com/sketch -->
    <title>Group</title>
    <desc>Created with Sketch.</desc>
    <defs></defs>
    <g id="Page-1" stroke="none" stroke-width="1" fill="none" fill-rule="evenodd">
        <g id="website_vector_market" transform="translate(-2.000000, 0.000000)" fill-rule="nonzero" fill="#000000">
            <g id="Group" transform="translate(2.000000, 0.000000)">
                <path d="M13.9,40.1 L46.1,40.1 C48.2,40.1 50,38.4 50,36.2 L50,6.5 L50,3.9 C50,1.7 48.2,0 46.1,0 L13.9,0 C11.8,0 10,1.7 10,3.9 L10,6.6 L10,36.3 C10,38.4 11.8,40.1 13.9,40.1 Z M26.1,2.3 L44.7,2.3 C45.3,2.3 45.7,2.8 45.7,3.3 C45.7,3.9 45.2,4.3 44.7,4.3 L26.1,4.3 C25.5,4.3 25.1,3.8 25.1,3.3 C25,2.7 25.5,2.3 26.1,2.3 Z M22.2,2.2 C22.8,2.2 23.3,2.7 23.3,3.3 C23.3,3.9 22.8,4.4 22.2,4.4 C21.6,4.4 21.1,3.9 21.1,3.3 C21.1,2.7 21.6,2.2 22.2,2.2 Z M18.8,2.2 C19.4,2.2 19.9,2.7 19.9,3.3 C19.9,3.9 19.4,4.4 18.8,4.4 C18.2,4.4 17.7,3.9 17.7,3.3 C17.7,2.7 18.2,2.2 18.8,2.2 Z M15.4,2.2 C16,2.2 16.5,2.7 16.5,3.3 C16.5,3.9 16,4.4 15.4,4.4 C14.8,4.4 14.3,3.9 14.3,3.3 C14.3,2.7 14.8,2.2 15.4,2.2 Z M13.1,6.5 L46.9,6.5 L46.9,36.2 C46.9,36.6 46.5,37 46.1,37 L13.9,37 C13.5,37 13.1,36.6 13.1,36.2 L13.1,6.5 Z" id="Shape"></path>
                <path d="M17.1,17 L42.6,17 C43.2,17 43.7,16.5 43.7,15.9 L43.7,10.4 C43.7,9.8 43.2,9.3 42.6,9.3 L17.1,9.3 C16.5,9.3 16,9.8 16,10.4 L16,15.9 C16,16.5 16.5,17 17.1,17 Z" id="Shape"></path>
                <path d="M27.1,20.1 L17.7,20.1 C17.3,20.1 17.1,20.4 17.1,20.7 C17.1,21.1 17.4,21.3 17.7,21.3 L27.1,21.3 C27.5,21.3 27.7,21 27.7,20.7 C27.7,20.4 27.4,20.1 27.1,20.1 Z" id="Shape"></path>
                <path d="M27.1,23.7 L17.7,23.7 C17.3,23.7 17.1,24 17.1,24.3 C17.1,24.7 17.4,24.9 17.7,24.9 L27.1,24.9 C27.5,24.9 27.7,24.6 27.7,24.3 C27.7,24 27.4,23.7 27.1,23.7 Z" id="Shape"></path>
                <path d="M27.1,26.8 L17.7,26.8 C17.3,26.8 17.1,27.1 17.1,27.4 C17.1,27.7 17.4,28 17.7,28 L27.1,28 C27.5,28 27.7,27.7 27.7,27.4 C27.7,27.1 27.4,26.8 27.1,26.8 Z" id="Shape"></path>
                <path d="M27.1,29.8 L17.7,29.8 C17.3,29.8 17.1,30.1 17.1,30.4 C17.1,30.8 17.4,31 17.7,31 L27.1,31 C27.5,31 27.7,30.7 27.7,30.4 C27.7,30.1 27.4,29.8 27.1,29.8 Z" id="Shape"></path>
                <path d="M27.1,32.9 L17.7,32.9 C17.3,32.9 17.1,33.2 17.1,33.5 C17.1,33.9 17.4,34.1 17.7,34.1 L27.1,34.1 C27.5,34.1 27.7,33.8 27.7,33.5 C27.7,33.2 27.4,32.9 27.1,32.9 Z" id="Shape"></path>
                <path d="M33.3,21.4 L42.7,21.4 C43.1,21.4 43.3,21.1 43.3,20.8 C43.3,20.4 43,20.2 42.7,20.2 L33.3,20.2 C32.9,20.2 32.7,20.5 32.7,20.8 C32.6,21.1 32.9,21.4 33.3,21.4 Z" id="Shape"></path>
                <path d="M43.3,24.4 C43.3,24 43,23.8 42.7,23.8 L33.3,23.8 C32.9,23.8 32.7,24.1 32.7,24.4 C32.7,24.8 33,25 33.3,25 L42.7,25 C43,25 43.3,24.7 43.3,24.4 Z" id="Shape"></path>
                <path d="M39.7,30.2 L39.8,30.2 L43,30.8 C43.1,30.8 43.2,30.9 43.3,30.9 L43.3,27.4 C43.3,27.1 43,26.8 42.7,26.8 L34.4,26.8 C34.1,26.8 33.8,27.1 33.8,27.4 L33.8,34.2 C33.8,34.5 34.1,34.8 34.4,34.8 L38.6,34.8 C38.6,34.8 38.6,34.7 38.6,34.7 L38.5,31.5 C38.5,31.2 38.6,30.9 38.8,30.6 C39,30.3 39.4,30.2 39.7,30.2 Z" id="Shape"></path>
                <path d="M42.1,32.8 L42.9,32.1 C43,32 43,31.8 42.8,31.7 L39.7,31.1 C39.6,31.1 39.4,31.2 39.4,31.3 L39.5,34.4 C39.5,34.6 39.7,34.7 39.9,34.6 L40.7,33.9 L42.2,35.7 C42.3,35.8 42.5,35.9 42.7,35.7 L43.5,35 C43.6,34.9 43.7,34.7 43.5,34.5 L42.1,32.8 Z" id="Shape"></path>
                <path d="M56.4,13.6 L52,13.6 L52,17.6 L55.5,17.6 L55.5,46.8 L4.5,46.8 L4.5,17.6 L8,17.6 L8,13.6 L3.6,13.6 C1.9,13.6 0.6,15 0.6,16.7 L0.6,51.8 C0.6,53.5 2,54.8 3.6,54.8 L21.6,54.8 L21.6,59.9 L19.9,59.9 C18.8,59.9 17.8,60.8 17.8,62 C17.8,63.1 18.7,64.1 19.9,64.1 L40.1,64.1 C41.2,64.1 42.2,63.2 42.2,62 C42.2,60.9 41.3,59.9 40.1,59.9 L38.4,59.9 L38.4,54.8 L56.4,54.8 C58.1,54.8 59.4,53.4 59.4,51.8 L59.4,16.7 C59.4,15 58.1,13.6 56.4,13.6 Z M8.8,51.5 L6.4,51.5 C6,51.5 5.6,51.1 5.6,50.7 C5.6,50.3 6,49.9 6.4,49.9 L8.9,49.9 C9.3,49.9 9.7,50.3 9.7,50.7 C9.6,51.1 9.3,51.5 8.8,51.5 Z M14.3,51.5 L11.8,51.5 C11.4,51.5 11,51.1 11,50.7 C11,50.3 11.4,49.9 11.8,49.9 L14.3,49.9 C14.7,49.9 15.1,50.3 15.1,50.7 C15.2,51.1 14.8,51.5 14.3,51.5 Z M19.9,51.5 L17.4,51.5 C17,51.5 16.6,51.1 16.6,50.7 C16.6,50.3 17,49.9 17.4,49.9 L19.9,49.9 C20.3,49.9 20.7,50.3 20.7,50.7 C20.7,51.1 20.3,51.5 19.9,51.5 Z M30,49.1 C30.9,49.1 31.6,49.8 31.6,50.7 C31.6,51.6 30.9,52.3 30,52.3 C29.1,52.3 28.4,51.6 28.4,50.7 C28.4,49.8 29.1,49.1 30,49.1 Z" id="Shape"></path>
            </g>
        </g>
    </g>
</svg>